REM DIRINDEX 1\2,1\3
REM DIRNAME folder01,folder02,folder03
TITLE ""
FILE "2261-2280.mp3" MP3
  TRACK 01 AUDIO
    TITLE "0:"
    INDEX 01 00:00:00
  TRACK 02 AUDIO
    TITLE "2:cjc039_3521"
    INDEX 01 00:00:25
  TRACK 03 AUDIO
    TITLE "0:"
    INDEX 01 00:01:48
  TRACK 04 AUDIO
    TITLE "3:cjc039_3522"
    INDEX 01 00:02:26
  TRACK 05 AUDIO
    TITLE "0:"
    INDEX 01 00:05:52
  TRACK 06 AUDIO
    TITLE "2:cjc039_3523"
    INDEX 01 00:07:29
  TRACK 07 AUDIO
    TITLE "0:"
    INDEX 01 00:08:56
  TRACK 08 AUDIO
    TITLE "3:cjc039_3524"
    INDEX 01 00:09:30
  TRACK 09 AUDIO
    TITLE "0:"
    INDEX 01 00:12:60
  TRACK 10 AUDIO
    TITLE "2:cjc039_3525"
    INDEX 01 00:14:35
  TRACK 11 AUDIO
    TITLE "0:"
    INDEX 01 00:15:58
  TRACK 12 AUDIO
    TITLE "3:cjc039_3526"
    INDEX 01 00:16:42
  TRACK 13 AUDIO
    TITLE "0:"
    INDEX 01 00:19:52
  TRACK 14 AUDIO
    TITLE "2:cjc039_3527"
    INDEX 01 00:21:31
  TRACK 15 AUDIO
    TITLE "0:"
    INDEX 01 00:22:60
  TRACK 16 AUDIO
    TITLE "3:cjc039_3528"
    INDEX 01 00:23:32
  TRACK 17 AUDIO
    TITLE "0:"
    INDEX 01 00:27:36
  TRACK 18 AUDIO
    TITLE "2:cjc039_3529"
    INDEX 01 00:29:15
  TRACK 19 AUDIO
    TITLE "0:"
    INDEX 01 00:30:20
  TRACK 20 AUDIO
    TITLE "3:cjc039_3530"
    INDEX 01 00:30:69
  TRACK 21 AUDIO
    TITLE "0:"
    INDEX 01 00:33:68
  TRACK 22 AUDIO
    TITLE "2:cjc039_3531"
    INDEX 01 00:35:45
  TRACK 23 AUDIO
    TITLE "0:"
    INDEX 01 00:36:72
  TRACK 24 AUDIO
    TITLE "3:cjc039_3532"
    INDEX 01 00:37:48
  TRACK 25 AUDIO
    TITLE "0:"
    INDEX 01 00:40:66
  TRACK 26 AUDIO
    TITLE "2:cjc039_3533"
    INDEX 01 00:42:35
  TRACK 27 AUDIO
    TITLE "0:"
    INDEX 01 00:43:62
  TRACK 28 AUDIO
    TITLE "3:cjc039_3534"
    INDEX 01 00:44:30
  TRACK 29 AUDIO
    TITLE "0:"
    INDEX 01 00:47:15
  TRACK 30 AUDIO
    TITLE "2:cjc039_3535"
    INDEX 01 00:48:63
  TRACK 31 AUDIO
    TITLE "0:"
    INDEX 01 00:50:29
  TRACK 32 AUDIO
    TITLE "3:cjc039_3536"
    INDEX 01 00:51:05
  TRACK 33 AUDIO
    TITLE "0:"
    INDEX 01 00:54:05
  TRACK 34 AUDIO
    TITLE "2:cjc039_3537"
    INDEX 01 00:55:55
  TRACK 35 AUDIO
    TITLE "0:"
    INDEX 01 00:57:05
  TRACK 36 AUDIO
    TITLE "3:cjc039_3538"
    INDEX 01 00:57:56
  TRACK 37 AUDIO
    TITLE "0:"
    INDEX 01 01:00:53
  TRACK 38 AUDIO
    TITLE "2:cjc039_3539"
    INDEX 01 01:02:26
  TRACK 39 AUDIO
    TITLE "0:"
    INDEX 01 01:04:01
  TRACK 40 AUDIO
    TITLE "3:cjc039_3540"
    INDEX 01 01:04:50
  TRACK 41 AUDIO
    TITLE "0:"
    INDEX 01 01:08:29
  TRACK 42 AUDIO
    TITLE "2:cjc039_3541"
    INDEX 01 01:10:02
  TRACK 43 AUDIO
    TITLE "0:"
    INDEX 01 01:11:11
  TRACK 44 AUDIO
    TITLE "3:cjc039_3542"
    INDEX 01 01:11:62
  TRACK 45 AUDIO
    TITLE "0:"
    INDEX 01 01:15:40
  TRACK 46 AUDIO
    TITLE "2:cjc039_3543"
    INDEX 01 01:17:22
  TRACK 47 AUDIO
    TITLE "0:"
    INDEX 01 01:18:45
  TRACK 48 AUDIO
    TITLE "3:cjc039_3544"
    INDEX 01 01:19:21
  TRACK 49 AUDIO
    TITLE "0:"
    INDEX 01 01:22:44
  TRACK 50 AUDIO
    TITLE "2:cjc039_3545"
    INDEX 01 01:24:18
  TRACK 51 AUDIO
    TITLE "0:"
    INDEX 01 01:25:39
  TRACK 52 AUDIO
    TITLE "3:cjc039_3546"
    INDEX 01 01:26:13
  TRACK 53 AUDIO
    TITLE "0:"
    INDEX 01 01:30:03
  TRACK 54 AUDIO
    TITLE "2:cjc039_3547"
    INDEX 01 01:31:51
  TRACK 55 AUDIO
    TITLE "0:"
    INDEX 01 01:33:23
  TRACK 56 AUDIO
    TITLE "3:cjc039_3548"
    INDEX 01 01:33:72
  TRACK 57 AUDIO
    TITLE "0:"
    INDEX 01 01:38:08
  TRACK 58 AUDIO
    TITLE "2:cjc039_3549"
    INDEX 01 01:39:55
  TRACK 59 AUDIO
    TITLE "0:"
    INDEX 01 01:40:72
  TRACK 60 AUDIO
    TITLE "3:cjc039_3550"
    INDEX 01 01:41:48
  TRACK 61 AUDIO
    TITLE "0:"
    INDEX 01 01:44:60
  TRACK 62 AUDIO
    TITLE "2:cjc039_3551"
    INDEX 01 01:46:29
  TRACK 63 AUDIO
    TITLE "0:"
    INDEX 01 01:47:46
  TRACK 64 AUDIO
    TITLE "3:cjc039_3552"
    INDEX 01 01:48:22
  TRACK 65 AUDIO
    TITLE "0:"
    INDEX 01 01:51:62
  TRACK 66 AUDIO
    TITLE "2:cjc039_3553"
    INDEX 01 01:53:39
  TRACK 67 AUDIO
    TITLE "0:"
    INDEX 01 01:54:41
  TRACK 68 AUDIO
    TITLE "3:cjc039_3554"
    INDEX 01 01:55:20
  TRACK 69 AUDIO
    TITLE "0:"
    INDEX 01 01:58:13
  TRACK 70 AUDIO
    TITLE "2:cjc039_3555"
    INDEX 01 01:59:65
  TRACK 71 AUDIO
    TITLE "0:"
    INDEX 01 02:01:09
  TRACK 72 AUDIO
    TITLE "3:cjc039_3556"
    INDEX 01 02:01:62
  TRACK 73 AUDIO
    TITLE "0:"
    INDEX 01 02:05:13
  TRACK 74 AUDIO
    TITLE "2:cjc039_3557"
    INDEX 01 02:06:57
  TRACK 75 AUDIO
    TITLE "0:"
    INDEX 01 02:07:59
  TRACK 76 AUDIO
    TITLE "3:cjc039_3558"
    INDEX 01 02:08:37
  TRACK 77 AUDIO
    TITLE "0:"
    INDEX 01 02:11:43
  TRACK 78 AUDIO
    TITLE "2:cjc039_3559"
    INDEX 01 02:13:18
  TRACK 79 AUDIO
    TITLE "0:"
    INDEX 01 02:14:47
  TRACK 80 AUDIO
    TITLE "3:cjc039_3560"
    INDEX 01 02:15:23
  TRACK 81 AUDIO
    TITLE "0:"
    INDEX 01 02:18:12
